<svg width="19" height="19" viewBox="0 0 19 19" fill="none" xmlns="http://www.w3.org/2000/svg">
<path d="M2.375 2.57292C2.04708 2.57292 1.78125 2.83875 1.78125 3.16667C1.78125 3.49459 2.04708 3.76042 2.375 3.76042C3.02183 3.76042 3.58188 4.20967 3.7222 4.8411L4.06256 6.37276C4.06504 6.40995 4.07103 6.44713 4.08065 6.48382L4.12411 6.64971L4.17039 6.85797C4.17949 6.89891 4.19261 6.93792 4.20925 6.97467L5.53542 12.0364C5.96875 13.6903 7.4633 14.8438 9.17306 14.8438H13.2609C15.3377 14.8438 17.0213 13.1602 17.0213 11.0833V8.93846C17.0213 8.49206 16.9569 7.95346 16.654 7.47826C15.9725 6.40902 14.7836 5.73959 13.4832 5.73959H5.13833L4.88142 4.5835C4.62036 3.40874 3.57841 2.57292 2.375 2.57292Z" fill="white"/>
<path d="M14.25 16.625C14.25 17.0622 13.8956 17.4167 13.4583 17.4167C13.0211 17.4167 12.6667 17.0622 12.6667 16.625C12.6667 16.1878 13.0211 15.8333 13.4583 15.8333C13.8956 15.8333 14.25 16.1878 14.25 16.625Z" fill="white"/>
<path d="M7.125 17.4167C7.56223 17.4167 7.91667 17.0622 7.91667 16.625C7.91667 16.1878 7.56223 15.8333 7.125 15.8333C6.68777 15.8333 6.33333 16.1878 6.33333 16.625C6.33333 17.0622 6.68777 17.4167 7.125 17.4167Z" fill="white"/>
</svg>
