<svg width="22" height="18" viewBox="0 0 22 18" fill="none" xmlns="http://www.w3.org/2000/svg">
<path fill-rule="evenodd" clip-rule="evenodd" d="M4.5 0.333252H17.5C19.8932 0.333252 21.8333 2.27335 21.8333 4.66659V13.3333C21.8333 15.7265 19.8932 17.6666 17.5 17.6666H4.5C2.10677 17.6666 0.166672 15.7265 0.166672 13.3333V4.66659C0.166672 2.27335 2.10677 0.333252 4.5 0.333252ZM5.15 3.09575C4.88077 2.73677 4.37149 2.66401 4.0125 2.93325C3.65352 3.20249 3.58077 3.71177 3.85 4.07075L6.88334 8.1152C8.94167 10.8596 13.0583 10.8596 15.1167 8.1152L18.15 4.07075C18.4192 3.71177 18.3465 3.20249 17.9875 2.93325C17.6285 2.66401 17.1192 2.73677 16.85 3.09575L13.8167 7.1402C12.4083 9.01797 9.59167 9.01797 8.18334 7.1402L5.15 3.09575Z" fill="#88BB76"/>
</svg>
