<svg width="21" height="21" viewBox="0 0 21 21" fill="none" xmlns="http://www.w3.org/2000/svg">
<path d="M1.3123 3.71752L2.24335 1.85541C2.90473 0.532665 4.66762 0.246584 5.71334 1.29231L8.18522 3.76419C8.84467 4.42363 9.00815 5.43107 8.59108 6.26522L8.30646 6.83447C7.84853 7.75032 7.84091 8.83406 8.3745 9.708C8.79223 10.3922 9.32703 11.1779 9.85965 11.7105C10.3187 12.1696 10.9657 12.6302 11.5737 13.0162C12.5927 13.663 13.8926 13.541 14.8647 12.8258C15.7316 12.1879 16.9372 12.2927 17.681 13.0705L19.8037 15.2901C20.8119 16.3442 20.5115 18.0732 19.2069 18.7255L17.2825 19.6877C15.787 20.4355 14.0925 20.7531 12.5117 20.2082C10.6129 19.5537 7.89171 18.2451 5.32333 15.6767C2.75495 13.1083 1.4463 10.3871 0.79177 8.48831C0.246865 6.90754 0.564533 5.21305 1.3123 3.71752Z" fill="#88BB76"/>
</svg>
