<svg width="136" height="26" viewBox="0 0 136 26" fill="none" xmlns="http://www.w3.org/2000/svg">
<path d="M31.1761 13.6364C31.1761 12.571 31.3168 11.5923 31.598 10.7003C31.8821 9.8054 32.304 8.97869 32.8636 8.22017H34.3168C34.1009 8.50142 33.8991 8.84659 33.7116 9.25568C33.5241 9.66193 33.3608 10.108 33.2216 10.5938C33.0852 11.0767 32.9773 11.5781 32.8977 12.098C32.821 12.6179 32.7827 13.1307 32.7827 13.6364C32.7827 14.3097 32.8494 14.9915 32.983 15.6818C33.1193 16.3722 33.3026 17.0128 33.5327 17.6037C33.7656 18.1918 34.027 18.6733 34.3168 19.0483H32.8636C32.304 18.2898 31.8821 17.4645 31.598 16.5724C31.3168 15.6776 31.1761 14.6989 31.1761 13.6364ZM38.6303 18.1193C38.0167 18.1193 37.4712 18.0142 36.994 17.804C36.5195 17.5937 36.1445 17.3011 35.869 16.9261C35.5934 16.5511 35.4471 16.1179 35.43 15.6264H37.0323C37.0465 15.8622 37.1246 16.0682 37.2667 16.2443C37.4087 16.4176 37.5977 16.5526 37.8335 16.6491C38.0692 16.7457 38.3335 16.794 38.6261 16.794C38.9386 16.794 39.2156 16.7401 39.457 16.6321C39.6985 16.5213 39.8874 16.3679 40.0238 16.1719C40.1602 15.9759 40.2269 15.75 40.2241 15.4943C40.2269 15.2301 40.1587 14.9972 40.0195 14.7955C39.8803 14.5937 39.6786 14.4361 39.4144 14.3224C39.1531 14.2088 38.8377 14.152 38.4684 14.152H37.6971V12.9332H38.4684C38.7724 12.9332 39.038 12.8807 39.2653 12.7756C39.4954 12.6705 39.6758 12.5227 39.8065 12.3324C39.9371 12.1392 40.0011 11.9162 39.9982 11.6634C40.0011 11.4162 39.9457 11.2017 39.832 11.0199C39.7212 10.8352 39.5636 10.6918 39.359 10.5895C39.1573 10.4872 38.9201 10.4361 38.6474 10.4361C38.3803 10.4361 38.1332 10.4844 37.9059 10.581C37.6786 10.6776 37.4954 10.8153 37.3562 10.9943C37.217 11.1705 37.1431 11.3807 37.1346 11.625H35.6133C35.6246 11.1364 35.7653 10.7074 36.0352 10.3381C36.3079 9.96591 36.6715 9.67614 37.1261 9.46875C37.5806 9.25852 38.0906 9.15341 38.6559 9.15341C39.2383 9.15341 39.744 9.26278 40.1729 9.48153C40.6048 9.69744 40.9386 9.98864 41.1744 10.3551C41.4102 10.7216 41.5281 11.1264 41.5281 11.5696C41.5309 12.0611 41.386 12.473 41.0934 12.8054C40.8036 13.1378 40.4229 13.3551 39.9513 13.4574V13.5256C40.565 13.6108 41.0352 13.8381 41.3619 14.2074C41.6914 14.5739 41.8548 15.0298 41.8519 15.5753C41.8519 16.0639 41.7127 16.5014 41.4343 16.8878C41.1587 17.2713 40.7781 17.5724 40.2923 17.7912C39.8093 18.0099 39.2553 18.1193 38.6303 18.1193ZM46.3487 18.1193C45.7805 18.1193 45.272 18.0128 44.8232 17.7997C44.3743 17.5838 44.0178 17.2884 43.7536 16.9134C43.4922 16.5384 43.353 16.1094 43.3359 15.6264H44.87C44.8984 15.9844 45.0533 16.277 45.3345 16.5043C45.6158 16.7287 45.9538 16.8409 46.3487 16.8409C46.6584 16.8409 46.9339 16.7699 47.1754 16.6278C47.4169 16.4858 47.6072 16.2884 47.7464 16.0355C47.8857 15.7827 47.9538 15.4943 47.951 15.1705C47.9538 14.8409 47.8842 14.5483 47.7422 14.2926C47.6001 14.0369 47.4055 13.8366 47.1584 13.6918C46.9112 13.544 46.6271 13.4702 46.3061 13.4702C46.0447 13.4673 45.7876 13.5156 45.5348 13.6151C45.282 13.7145 45.0817 13.8452 44.9339 14.0071L43.5064 13.7727L43.9624 9.27273H49.0249V10.5938H45.2706L45.0192 12.9077H45.0703C45.2322 12.7173 45.4609 12.5597 45.7564 12.4347C46.0518 12.3068 46.3757 12.2429 46.728 12.2429C47.2564 12.2429 47.728 12.3679 48.1428 12.6179C48.5575 12.8651 48.8842 13.206 49.1229 13.6406C49.3615 14.0753 49.4808 14.5724 49.4808 15.1321C49.4808 15.7088 49.3473 16.223 49.0803 16.6747C48.8161 17.1236 48.4482 17.4773 47.9766 17.7358C47.5078 17.9915 46.9652 18.1193 46.3487 18.1193ZM53.6783 13.6364C53.6783 14.6989 53.5362 15.6776 53.2521 16.5724C52.9709 17.4645 52.5504 18.2898 51.9908 19.0483H50.5376C50.7564 18.767 50.9581 18.4233 51.1428 18.017C51.3303 17.6108 51.4922 17.1648 51.6286 16.679C51.7678 16.1932 51.8757 15.6903 51.9524 15.1705C52.032 14.6506 52.0717 14.1392 52.0717 13.6364C52.0717 12.9631 52.0036 12.2812 51.8672 11.5909C51.7337 10.9006 51.5504 10.2599 51.3175 9.66903C51.0874 9.07812 50.8274 8.59517 50.5376 8.22017H51.9908C52.5504 8.97869 52.9709 9.8054 53.2521 10.7003C53.5362 11.5923 53.6783 12.571 53.6783 13.6364ZM61.6374 9.15341C62.055 9.15625 62.4613 9.23011 62.8562 9.375C63.2539 9.51705 63.6119 9.75 63.93 10.0739C64.2482 10.3949 64.5011 10.8253 64.6886 11.3651C64.8761 11.9048 64.9698 12.5724 64.9698 13.3679C64.9727 14.1179 64.8931 14.7884 64.7312 15.3793C64.5721 15.9673 64.3434 16.4645 64.0451 16.8707C63.7468 17.277 63.3874 17.5866 62.967 17.7997C62.5465 18.0128 62.0735 18.1193 61.5479 18.1193C60.9968 18.1193 60.5082 18.0114 60.082 17.7955C59.6587 17.5795 59.3164 17.2841 59.055 16.9091C58.7937 16.5341 58.6332 16.1051 58.5735 15.6222H60.1289C60.2085 15.9687 60.3704 16.2443 60.6147 16.4489C60.8619 16.6506 61.1729 16.7514 61.5479 16.7514C62.1531 16.7514 62.619 16.4886 62.9457 15.9631C63.2724 15.4375 63.4357 14.7074 63.4357 13.7727H63.3761C63.2369 14.0227 63.0565 14.2386 62.8349 14.4205C62.6133 14.5994 62.3619 14.7372 62.0806 14.8338C61.8022 14.9304 61.5067 14.9787 61.1942 14.9787C60.6829 14.9787 60.2227 14.8565 59.8136 14.6122C59.4073 14.3679 59.0849 14.0327 58.8462 13.6065C58.6104 13.1804 58.4911 12.6932 58.4883 12.1449C58.4883 11.5767 58.619 11.0668 58.8803 10.6151C59.1445 10.1605 59.5124 9.80256 59.984 9.54119C60.4556 9.27699 61.0067 9.14773 61.6374 9.15341ZM61.6417 10.4318C61.3349 10.4318 61.0579 10.5071 60.8107 10.6577C60.5664 10.8054 60.3732 11.0071 60.2312 11.2628C60.092 11.5156 60.0224 11.7983 60.0224 12.1108C60.0252 12.4205 60.0948 12.7017 60.2312 12.9545C60.3704 13.2074 60.5593 13.4077 60.7979 13.5554C61.0394 13.7031 61.315 13.777 61.6246 13.777C61.8548 13.777 62.0692 13.733 62.2681 13.6449C62.467 13.5568 62.6403 13.4347 62.788 13.2784C62.9386 13.1193 63.055 12.9389 63.1374 12.7372C63.2227 12.5355 63.2638 12.3224 63.261 12.098C63.261 11.7997 63.19 11.5241 63.0479 11.2713C62.9087 11.0185 62.717 10.8153 62.4727 10.6619C62.2312 10.5085 61.9542 10.4318 61.6417 10.4318ZM69.4187 9.15341C69.8363 9.15625 70.2425 9.23011 70.6374 9.375C71.0352 9.51705 71.3931 9.75 71.7113 10.0739C72.0295 10.3949 72.2823 10.8253 72.4698 11.3651C72.6573 11.9048 72.7511 12.5724 72.7511 13.3679C72.7539 14.1179 72.6744 14.7884 72.5124 15.3793C72.3533 15.9673 72.1246 16.4645 71.8263 16.8707C71.5281 17.277 71.1687 17.5866 70.7482 17.7997C70.3278 18.0128 69.8548 18.1193 69.3292 18.1193C68.7781 18.1193 68.2894 18.0114 67.8633 17.7955C67.44 17.5795 67.0977 17.2841 66.8363 16.9091C66.5749 16.5341 66.4144 16.1051 66.3548 15.6222H67.9102C67.9897 15.9687 68.1516 16.2443 68.396 16.4489C68.6431 16.6506 68.9542 16.7514 69.3292 16.7514C69.9343 16.7514 70.4002 16.4886 70.7269 15.9631C71.0536 15.4375 71.217 14.7074 71.217 13.7727H71.1573C71.0181 14.0227 70.8377 14.2386 70.6161 14.4205C70.3945 14.5994 70.1431 14.7372 69.8619 14.8338C69.5835 14.9304 69.288 14.9787 68.9755 14.9787C68.4641 14.9787 68.0039 14.8565 67.5948 14.6122C67.1886 14.3679 66.8661 14.0327 66.6275 13.6065C66.3917 13.1804 66.2724 12.6932 66.2695 12.1449C66.2695 11.5767 66.4002 11.0668 66.6616 10.6151C66.9258 10.1605 67.2937 9.80256 67.7653 9.54119C68.2369 9.27699 68.788 9.14773 69.4187 9.15341ZM69.4229 10.4318C69.1161 10.4318 68.8391 10.5071 68.592 10.6577C68.3477 10.8054 68.1545 11.0071 68.0124 11.2628C67.8732 11.5156 67.8036 11.7983 67.8036 12.1108C67.8065 12.4205 67.8761 12.7017 68.0124 12.9545C68.1516 13.2074 68.3406 13.4077 68.5792 13.5554C68.8207 13.7031 69.0962 13.777 69.4059 13.777C69.636 13.777 69.8505 13.733 70.0494 13.6449C70.2482 13.5568 70.4215 13.4347 70.5692 13.2784C70.7198 13.1193 70.8363 12.9389 70.9187 12.7372C71.0039 12.5355 71.0451 12.3224 71.0423 12.098C71.0423 11.7997 70.9712 11.5241 70.8292 11.2713C70.69 11.0185 70.4982 10.8153 70.2539 10.6619C70.0124 10.5085 69.7354 10.4318 69.4229 10.4318ZM77.1999 9.15341C77.6175 9.15625 78.0238 9.23011 78.4187 9.375C78.8164 9.51705 79.1744 9.75 79.4925 10.0739C79.8107 10.3949 80.0636 10.8253 80.2511 11.3651C80.4386 11.9048 80.5323 12.5724 80.5323 13.3679C80.5352 14.1179 80.4556 14.7884 80.2937 15.3793C80.1346 15.9673 79.9059 16.4645 79.6076 16.8707C79.3093 17.277 78.9499 17.5866 78.5295 17.7997C78.109 18.0128 77.636 18.1193 77.1104 18.1193C76.5593 18.1193 76.0707 18.0114 75.6445 17.7955C75.2212 17.5795 74.8789 17.2841 74.6175 16.9091C74.3562 16.5341 74.1957 16.1051 74.136 15.6222H75.6914C75.771 15.9687 75.9329 16.2443 76.1772 16.4489C76.4244 16.6506 76.7354 16.7514 77.1104 16.7514C77.7156 16.7514 78.1815 16.4886 78.5082 15.9631C78.8349 15.4375 78.9982 14.7074 78.9982 13.7727H78.9386C78.7994 14.0227 78.619 14.2386 78.3974 14.4205C78.1758 14.5994 77.9244 14.7372 77.6431 14.8338C77.3647 14.9304 77.0692 14.9787 76.7567 14.9787C76.2454 14.9787 75.7852 14.8565 75.3761 14.6122C74.9698 14.3679 74.6474 14.0327 74.4087 13.6065C74.1729 13.1804 74.0536 12.6932 74.0508 12.1449C74.0508 11.5767 74.1815 11.0668 74.4428 10.6151C74.707 10.1605 75.0749 9.80256 75.5465 9.54119C76.0181 9.27699 76.5692 9.14773 77.1999 9.15341ZM77.2042 10.4318C76.8974 10.4318 76.6204 10.5071 76.3732 10.6577C76.1289 10.8054 75.9357 11.0071 75.7937 11.2628C75.6545 11.5156 75.5849 11.7983 75.5849 12.1108C75.5877 12.4205 75.6573 12.7017 75.7937 12.9545C75.9329 13.2074 76.1218 13.4077 76.3604 13.5554C76.6019 13.7031 76.8775 13.777 77.1871 13.777C77.4173 13.777 77.6317 13.733 77.8306 13.6449C78.0295 13.5568 78.2028 13.4347 78.3505 13.2784C78.5011 13.1193 78.6175 12.9389 78.6999 12.7372C78.7852 12.5355 78.8263 12.3224 78.8235 12.098C78.8235 11.7997 78.7525 11.5241 78.6104 11.2713C78.4712 11.0185 78.2795 10.8153 78.0352 10.6619C77.7937 10.5085 77.5167 10.4318 77.2042 10.4318ZM85.0835 18.1193C84.4698 18.1193 83.9244 18.0142 83.4471 17.804C82.9727 17.5937 82.5977 17.3011 82.3221 16.9261C82.0465 16.5511 81.9002 16.1179 81.8832 15.6264H83.4854C83.4996 15.8622 83.5778 16.0682 83.7198 16.2443C83.8619 16.4176 84.0508 16.5526 84.2866 16.6491C84.5224 16.7457 84.7866 16.794 85.0792 16.794C85.3917 16.794 85.6687 16.7401 85.9102 16.6321C86.1516 16.5213 86.3406 16.3679 86.4769 16.1719C86.6133 15.9759 86.68 15.75 86.6772 15.4943C86.68 15.2301 86.6119 14.9972 86.4727 14.7955C86.3335 14.5937 86.1317 14.4361 85.8675 14.3224C85.6062 14.2088 85.2908 14.152 84.9215 14.152H84.1502V12.9332H84.9215C85.2255 12.9332 85.4911 12.8807 85.7184 12.7756C85.9485 12.6705 86.1289 12.5227 86.2596 12.3324C86.3903 12.1392 86.4542 11.9162 86.4513 11.6634C86.4542 11.4162 86.3988 11.2017 86.2852 11.0199C86.1744 10.8352 86.0167 10.6918 85.8121 10.5895C85.6104 10.4872 85.3732 10.4361 85.1005 10.4361C84.8335 10.4361 84.5863 10.4844 84.359 10.581C84.1317 10.6776 83.9485 10.8153 83.8093 10.9943C83.6701 11.1705 83.5962 11.3807 83.5877 11.625H82.0664C82.0778 11.1364 82.2184 10.7074 82.4883 10.3381C82.761 9.96591 83.1246 9.67614 83.5792 9.46875C84.0337 9.25852 84.5437 9.15341 85.109 9.15341C85.6914 9.15341 86.1971 9.26278 86.6261 9.48153C87.0579 9.69744 87.3917 9.98864 87.6275 10.3551C87.8633 10.7216 87.9812 11.1264 87.9812 11.5696C87.984 12.0611 87.8391 12.473 87.5465 12.8054C87.2567 13.1378 86.8761 13.3551 86.4045 13.4574V13.5256C87.0181 13.6108 87.4883 13.8381 87.815 14.2074C88.1445 14.5739 88.3079 15.0298 88.305 15.5753C88.305 16.0639 88.1658 16.5014 87.8874 16.8878C87.6119 17.2713 87.2312 17.5724 86.7454 17.7912C86.2624 18.0099 85.7085 18.1193 85.0835 18.1193ZM89.7678 18V16.858L92.7976 13.8878C93.0874 13.5952 93.3288 13.3352 93.522 13.108C93.7152 12.8807 93.8601 12.6605 93.9567 12.4474C94.0533 12.2344 94.1016 12.0071 94.1016 11.7656C94.1016 11.4901 94.0391 11.2543 93.9141 11.0582C93.7891 10.8594 93.6172 10.706 93.3984 10.598C93.1797 10.4901 92.9311 10.4361 92.6527 10.4361C92.3658 10.4361 92.1143 10.4957 91.8984 10.6151C91.6825 10.7315 91.5149 10.8977 91.3956 11.1136C91.2791 11.3295 91.2209 11.5866 91.2209 11.8849H89.7166C89.7166 11.331 89.843 10.8494 90.0959 10.4403C90.3487 10.0312 90.6967 9.71449 91.1399 9.49006C91.5859 9.26562 92.0973 9.15341 92.674 9.15341C93.2592 9.15341 93.7734 9.26278 94.2166 9.48153C94.6598 9.70028 95.0036 10 95.2479 10.3807C95.495 10.7614 95.6186 11.196 95.6186 11.6847C95.6186 12.0114 95.5561 12.3324 95.4311 12.6477C95.3061 12.9631 95.0859 13.3125 94.7706 13.696C94.4581 14.0795 94.0192 14.544 93.4538 15.0895L91.9496 16.6193V16.679H95.7507V18H89.7678ZM104.182 13.0014V14.2713H100.253V13.0014H104.182ZM111.794 9.15341C112.211 9.15625 112.618 9.23011 113.012 9.375C113.41 9.51705 113.768 9.75 114.086 10.0739C114.404 10.3949 114.657 10.8253 114.845 11.3651C115.032 11.9048 115.126 12.5724 115.126 13.3679C115.129 14.1179 115.049 14.7884 114.887 15.3793C114.728 15.9673 114.5 16.4645 114.201 16.8707C113.903 17.277 113.544 17.5866 113.123 17.7997C112.703 18.0128 112.23 18.1193 111.704 18.1193C111.153 18.1193 110.664 18.0114 110.238 17.7955C109.815 17.5795 109.473 17.2841 109.211 16.9091C108.95 16.5341 108.789 16.1051 108.73 15.6222H110.285C110.365 15.9687 110.527 16.2443 110.771 16.4489C111.018 16.6506 111.329 16.7514 111.704 16.7514C112.309 16.7514 112.775 16.4886 113.102 15.9631C113.429 15.4375 113.592 14.7074 113.592 13.7727H113.532C113.393 14.0227 113.213 14.2386 112.991 14.4205C112.77 14.5994 112.518 14.7372 112.237 14.8338C111.958 14.9304 111.663 14.9787 111.35 14.9787C110.839 14.9787 110.379 14.8565 109.97 14.6122C109.564 14.3679 109.241 14.0327 109.002 13.6065C108.767 13.1804 108.647 12.6932 108.645 12.1449C108.645 11.5767 108.775 11.0668 109.037 10.6151C109.301 10.1605 109.669 9.80256 110.14 9.54119C110.612 9.27699 111.163 9.14773 111.794 9.15341ZM111.798 10.4318C111.491 10.4318 111.214 10.5071 110.967 10.6577C110.723 10.8054 110.529 11.0071 110.387 11.2628C110.248 11.5156 110.179 11.7983 110.179 12.1108C110.181 12.4205 110.251 12.7017 110.387 12.9545C110.527 13.2074 110.716 13.4077 110.954 13.5554C111.196 13.7031 111.471 13.777 111.781 13.777C112.011 13.777 112.225 13.733 112.424 13.6449C112.623 13.5568 112.797 13.4347 112.944 13.2784C113.095 13.1193 113.211 12.9389 113.294 12.7372C113.379 12.5355 113.42 12.3224 113.417 12.098C113.417 11.7997 113.346 11.5241 113.204 11.2713C113.065 11.0185 112.873 10.8153 112.629 10.6619C112.387 10.5085 112.11 10.4318 111.798 10.4318ZM120.095 9.27273V18H118.514V10.8111H118.463L116.422 12.1151V10.6662L118.591 9.27273H120.095ZM122.63 18L126.342 10.6534V10.5938H122.034V9.27273H127.978V10.6236L124.271 18H122.63ZM129.908 18L133.619 10.6534V10.5938H129.311V9.27273H135.256V10.6236L131.548 18H129.908Z" fill="white"/>
<path d="M3.31233 6.71752L4.24338 4.85541C4.90476 3.53267 6.66765 3.24658 7.71337 4.29231L10.1853 6.76419C10.8447 7.42363 11.0082 8.43107 10.5911 9.26522L10.3065 9.83447C9.84856 10.7503 9.84095 11.8341 10.3745 12.708C10.7923 13.3922 11.3271 14.1779 11.8597 14.7105C12.3187 15.1696 12.9658 15.6302 13.5738 16.0162C14.5927 16.663 15.8926 16.541 16.8647 15.8258C17.7316 15.1879 18.9372 15.2927 19.681 16.0705L21.8038 18.2901C22.8119 19.3442 22.5115 21.0732 21.2069 21.7255L19.2825 22.6877C17.787 23.4355 16.0925 23.7531 14.5117 23.2082C12.613 22.5537 9.89174 21.2451 7.32336 18.6767C4.75498 16.1083 3.44633 13.3871 2.7918 11.4883C2.2469 9.90754 2.56456 8.21305 3.31233 6.71752Z" fill="#88BB76"/>
</svg>
