<svg width="34" height="34" viewBox="0 0 34 34" fill="none" xmlns="http://www.w3.org/2000/svg">
<path d="M16.9999 22.6666C19.7383 22.6666 21.9583 20.4467 21.9583 17.7083C21.9583 14.9699 19.7383 12.75 16.9999 12.75C14.2615 12.75 12.0416 14.9699 12.0416 17.7083C12.0416 20.4467 14.2615 22.6666 16.9999 22.6666Z" fill="#88BB76"/>
<path fill-rule="evenodd" clip-rule="evenodd" d="M2.83325 17C2.83325 11.7038 2.83325 9.05575 3.97204 7.08331C4.71807 5.79115 5.79109 4.71813 7.08325 3.9721C9.05568 2.83331 11.7038 2.83331 16.9999 2.83331C22.2961 2.83331 24.9442 2.83331 26.9166 3.9721C28.2087 4.71813 29.2818 5.79115 30.0278 7.08331C31.1666 9.05575 31.1666 11.7038 31.1666 17C31.1666 22.2961 31.1666 24.9442 30.0278 26.9166C29.2818 28.2088 28.2087 29.2818 26.9166 30.0279C24.9442 31.1666 22.2961 31.1666 16.9999 31.1666C11.7038 31.1666 9.05568 31.1666 7.08325 30.0279C5.79109 29.2818 4.71807 28.2088 3.97204 26.9166C2.83325 24.9442 2.83325 22.2961 2.83325 17ZM16.9999 24.7916C20.9119 24.7916 24.0833 21.6203 24.0833 17.7083C24.0833 13.7963 20.9119 10.625 16.9999 10.625C13.0879 10.625 9.91659 13.7963 9.91659 17.7083C9.91659 21.6203 13.0879 24.7916 16.9999 24.7916ZM23.3749 11.3333C24.5485 11.3333 25.4999 10.3819 25.4999 9.20831C25.4999 8.03471 24.5485 7.08331 23.3749 7.08331C22.2013 7.08331 21.2499 8.03471 21.2499 9.20831C21.2499 10.3819 22.2013 11.3333 23.3749 11.3333Z" fill="#88BB76"/>
</svg>
