<svg width="21" height="23" viewBox="0 0 21 23" fill="none" xmlns="http://www.w3.org/2000/svg">
<path d="M13.3125 10.375C13.3125 11.9283 12.0533 13.1875 10.5 13.1875C8.9467 13.1875 7.6875 11.9283 7.6875 10.375C7.6875 8.8217 8.9467 7.5625 10.5 7.5625C12.0533 7.5625 13.3125 8.8217 13.3125 10.375Z" fill="#88BB76"/>
<path fill-rule="evenodd" clip-rule="evenodd" d="M12.1292 21.9647C16.4957 19.5897 20.1237 15.3581 20.625 10.375C20.625 4.78312 16.0919 0.25 10.5 0.25C4.90812 0.25 0.375 4.78312 0.375 10.375C0.880233 15.3976 4.13496 19.6568 8.8444 22.0208C9.88211 22.5417 11.1091 22.5195 12.1292 21.9647ZM15 10.375C15 12.8603 12.9853 14.875 10.5 14.875C8.01472 14.875 6 12.8603 6 10.375C6 7.88972 8.01472 5.875 10.5 5.875C12.9853 5.875 15 7.88972 15 10.375Z" fill="#88BB76"/>
</svg>
