<svg width="20" height="20" viewBox="0 0 20 20" fill="none" xmlns="http://www.w3.org/2000/svg">
<path fill-rule="evenodd" clip-rule="evenodd" d="M13.2044 14.4719C12.0838 15.3261 10.6845 15.8333 9.16667 15.8333C5.48477 15.8333 2.5 12.8486 2.5 9.16667C2.5 5.48477 5.48477 2.5 9.16667 2.5C12.8486 2.5 15.8333 5.48477 15.8333 9.16667C15.8333 10.8927 15.1774 12.4656 14.1011 13.6495C14.1233 13.6646 14.1447 13.6813 14.1652 13.6995L17.9152 17.0329C18.1732 17.2622 18.1965 17.6572 17.9671 17.9152C17.7378 18.1732 17.3428 18.1965 17.0848 17.9671L13.3348 14.6338C13.2811 14.5861 13.2376 14.5312 13.2044 14.4719ZM14.5833 9.16667C14.5833 12.1582 12.1582 14.5833 9.16667 14.5833C6.17512 14.5833 3.75 12.1582 3.75 9.16667C3.75 6.17512 6.17512 3.75 9.16667 3.75C12.1582 3.75 14.5833 6.17512 14.5833 9.16667Z" fill="white"/>
</svg>
