<svg width="34" height="34" viewBox="0 0 34 34" fill="none" xmlns="http://www.w3.org/2000/svg">
<path fill-rule="evenodd" clip-rule="evenodd" d="M7.14508 29.3175L7.79163 24.7917L6.60221 22.4129C4.32135 17.8512 5.01666 12.3642 8.36328 8.51556C13.0704 3.10233 21.3416 2.70794 26.5425 7.64875L26.9051 7.99326C29.6049 10.558 31.0233 14.1911 30.7756 17.9067C30.2468 25.8389 22.5572 31.2778 14.9018 29.1342L12.0416 28.3334L7.50341 29.63C7.30603 29.6864 7.11605 29.5207 7.14508 29.3175ZM12.4829 12.0374L11.9575 13.2681C11.5355 14.2565 11.3963 15.3564 11.8049 16.3507C12.2957 17.5451 13.2362 19.2428 14.9772 20.7948C16.7182 22.3469 18.5094 23.0844 19.7494 23.433C20.7817 23.7232 21.8542 23.4553 22.7831 22.9188L23.9783 22.2284C24.7885 21.7604 24.9154 20.639 24.2302 20.0003L23.3139 19.123C22.8084 18.6517 22.0326 18.6297 21.502 19.0719C20.9069 19.5678 19.6106 20.2271 18.934 19.8503C18.5302 19.6255 17.5699 18.8854 17.2588 18.608C16.8977 18.2862 16.0033 17.333 15.71 16.9095C15.3355 16.3686 15.7625 15.1389 16.021 14.5336L16.1833 14.159C16.4187 13.6077 16.2788 12.9696 15.8318 12.5711L14.6824 11.545C13.9735 10.9131 12.8561 11.1633 12.4829 12.0374Z" fill="#88BB76"/>
</svg>
